<mxfile host="65bd71144e">
    <diagram id="hd9V6HLWF7xjtRXXJGI9" name="Page-1">
        <mxGraphModel dx="708" dy="375" grid="1" gridSize="10" guides="1" tooltips="1" connect="1" arrows="1" fold="1" page="1" pageScale="1" pageWidth="1700" pageHeight="1100" background="#5CB8FF" math="0" shadow="1">
            <root>
                <mxCell id="0"/>
                <mxCell id="1" parent="0"/>
                <mxCell id="241" style="edgeStyle=none;html=1;" edge="1" parent="1" source="240">
                    <mxGeometry relative="1" as="geometry">
                        <mxPoint x="520" y="240" as="targetPoint"/>
                    </mxGeometry>
                </mxCell>
                <mxCell id="240" value="Visiteur" style="shape=umlActor;verticalLabelPosition=bottom;verticalAlign=top;html=1;outlineConnect=0;" vertex="1" parent="1">
                    <mxGeometry x="280" y="210" width="30" height="60" as="geometry"/>
                </mxCell>
                <mxCell id="242" value="Fais un recherche par critÃ¨res ou via la barre de recherche" style="text;html=1;strokeColor=none;fillColor=none;align=center;verticalAlign=middle;whiteSpace=wrap;rounded=0;" vertex="1" parent="1">
                    <mxGeometry x="330" y="200" width="160" height="30" as="geometry"/>
                </mxCell>
            </root>
        </mxGraphModel>
    </diagram>
</mxfile>